<svg xmlns="http://www.w3.org/2000/svg" xmlns:xlink="http://www.w3.org/1999/xlink" width="2000" zoomAndPan="magnify" viewBox="0 0 1500 1499.999933" height="2000" preserveAspectRatio="xMidYMid meet" version="1.0"><defs><filter x="0%" y="0%" width="100%" height="100%" id="32a110d6fa"><feColorMatrix values="0 0 0 0 1 0 0 0 0 1 0 0 0 0 1 0 0 0 1 0" color-interpolation-filters="sRGB"/></filter><mask id="4f73bcb4a9"><g filter="url(#32a110d6fa)"><rect x="-150" width="1800" fill="#000000" y="-149.999993" height="1799.99992" fill-opacity="0.05"/></g></mask><clipPath id="3e818f94f6"><path d="M 349.328125 306.308594 L 1448 306.308594 L 1448 1288 L 349.328125 1288 Z M 349.328125 306.308594 " clip-rule="nonzero"/></clipPath><clipPath id="586c0a5d20"><rect x="0" width="1448" y="0" height="1288"/></clipPath><mask id="4b25603a5f"><g filter="url(#32a110d6fa)"><rect x="-150" width="1800" fill="#000000" y="-149.999993" height="1799.99992" fill-opacity="0.85"/></g></mask><clipPath id="8fe01c8a2c"><path d="M 0 0 L 1374.71875 0 L 1374.71875 1500 L 0 1500 Z M 0 0 " clip-rule="nonzero"/></clipPath><clipPath id="7b2ff17c73"><path d="M 319 139 L 1307 139 L 1307 1350 L 319 1350 Z M 319 139 " clip-rule="nonzero"/></clipPath><clipPath id="a2fe51442b"><path d="M 305.019531 1217.773438 L 1166.449219 89.839844 L 1357.046875 235.398438 L 495.613281 1363.335938 Z M 305.019531 1217.773438 " clip-rule="nonzero"/></clipPath><clipPath id="ad9f015b58"><path d="M 326.414062 1189.761719 L 1079.742188 203.371094 C 1134.292969 131.941406 1208.84375 122.78125 1261.476562 162.976562 C 1314.109375 203.171875 1324.890625 277.503906 1270.335938 348.933594 L 517.011719 1335.320312 C 505.195312 1350.792969 483.074219 1353.757812 467.601562 1341.941406 L 333.035156 1239.167969 C 317.5625 1227.351562 314.597656 1205.230469 326.414062 1189.761719 Z M 326.414062 1189.761719 " clip-rule="nonzero"/></clipPath><clipPath id="32e93a59d3"><path d="M 0 0 L 988 0 L 988 1211 L 0 1211 Z M 0 0 " clip-rule="nonzero"/></clipPath><clipPath id="224c343b8a"><path d="M -13.980469 1078.773438 L 847.449219 -49.160156 L 1038.046875 96.398438 L 176.613281 1224.335938 Z M -13.980469 1078.773438 " clip-rule="nonzero"/></clipPath><clipPath id="0f452af257"><path d="M 7.414062 1050.761719 L 760.742188 64.371094 C 815.292969 -7.058594 889.84375 -16.21875 942.476562 23.976562 C 995.109375 64.171875 1005.890625 138.503906 951.335938 209.933594 L 198.011719 1196.320312 C 186.195312 1211.792969 164.074219 1214.757812 148.601562 1202.941406 L 14.035156 1100.167969 C -1.4375 1088.351562 -4.402344 1066.230469 7.414062 1050.761719 Z M 7.414062 1050.761719 " clip-rule="nonzero"/></clipPath><clipPath id="e1f0d084f9"><rect x="0" width="988" y="0" height="1211"/></clipPath><clipPath id="9ebe64a53c"><path d="M 0 783 L 527 783 L 527 1391 L 0 1391 Z M 0 783 " clip-rule="nonzero"/></clipPath><clipPath id="bab4bb884d"><path d="M -214.300781 956.726562 L -63.660156 755.242188 L 554.96875 1217.761719 L 404.324219 1419.246094 Z M -214.300781 956.726562 " clip-rule="nonzero"/></clipPath><clipPath id="2021a6794b"><path d="M -172.085938 900.261719 L -105.875 811.703125 C -94.675781 796.730469 -77.992188 786.816406 -59.484375 784.144531 C -40.980469 781.472656 -22.171875 786.257812 -7.195312 797.457031 L 498.355469 1175.433594 C 513.332031 1186.632812 523.246094 1203.316406 525.917969 1221.824219 C 528.589844 1240.328125 523.800781 1259.136719 512.605469 1274.113281 L 446.390625 1362.671875 C 435.195312 1377.648438 418.507812 1387.5625 400.003906 1390.234375 C 381.496094 1392.90625 362.6875 1388.117188 347.714844 1376.921875 L -157.835938 998.941406 C -172.8125 987.746094 -182.726562 971.058594 -185.398438 952.554688 C -188.070312 934.046875 -183.28125 915.238281 -172.085938 900.261719 Z M -172.085938 900.261719 " clip-rule="nonzero"/></clipPath><clipPath id="089c3975f9"><path d="M 0 0 L 527 0 L 527 608 L 0 608 Z M 0 0 " clip-rule="nonzero"/></clipPath><clipPath id="522260d83a"><path d="M -214.300781 173.726562 L -63.660156 -27.757812 L 554.96875 434.761719 L 404.324219 636.246094 Z M -214.300781 173.726562 " clip-rule="nonzero"/></clipPath><clipPath id="b8320cc6d6"><path d="M -172.085938 117.261719 L -105.875 28.703125 C -94.675781 13.730469 -77.992188 3.816406 -59.484375 1.144531 C -40.980469 -1.527344 -22.171875 3.257812 -7.195312 14.457031 L 498.355469 392.433594 C 513.332031 403.632812 523.246094 420.316406 525.917969 438.824219 C 528.589844 457.328125 523.800781 476.136719 512.605469 491.113281 L 446.390625 579.671875 C 435.195312 594.648438 418.507812 604.5625 400.003906 607.234375 C 381.496094 609.90625 362.6875 605.117188 347.714844 593.921875 L -157.835938 215.941406 C -172.8125 204.746094 -182.726562 188.058594 -185.398438 169.554688 C -188.070312 151.046875 -183.28125 132.238281 -172.085938 117.261719 Z M -172.085938 117.261719 " clip-rule="nonzero"/></clipPath><clipPath id="14b320bb3c"><rect x="0" width="527" y="0" height="608"/></clipPath><clipPath id="0072d31980"><path d="M 0 783 L 131 783 L 131 1102 L 0 1102 Z M 0 783 " clip-rule="nonzero"/></clipPath><clipPath id="e3d607fee6"><path d="M -239.609375 934.800781 L -86.882812 735.710938 L 130.871094 902.753906 L -21.855469 1101.84375 Z M -239.609375 934.800781 " clip-rule="nonzero"/></clipPath><clipPath id="a6c1e6d4c5"><path d="M -183.566406 872.320312 C -178.84375 859.78125 -171.941406 846.59375 -163.203125 835.203125 C -154.46875 823.8125 -144.328125 814.183594 -133.496094 806.449219 C -133.234375 806.308594 -133.070312 806.09375 -132.808594 805.953125 C -91.386719 777.484375 -37.398438 774.527344 1.0625 803.175781 L 130.71875 902.636719 L -22.007812 1101.726562 L -151.566406 1002.339844 C -189.492188 972.394531 -200.949219 919.910156 -183.566406 872.320312 Z M -183.566406 872.320312 " clip-rule="nonzero"/></clipPath><clipPath id="2ae8867531"><path d="M 0 0 L 130.800781 0 L 130.800781 318.839844 L 0 318.839844 Z M 0 0 " clip-rule="nonzero"/></clipPath><clipPath id="056cf97a68"><path d="M -239.609375 151.800781 L -86.882812 -47.289062 L 130.871094 119.753906 L -21.855469 318.84375 Z M -239.609375 151.800781 " clip-rule="nonzero"/></clipPath><clipPath id="e8c9e31e24"><path d="M -183.566406 89.320312 C -178.84375 76.78125 -171.941406 63.59375 -163.203125 52.203125 C -154.46875 40.8125 -144.328125 31.183594 -133.496094 23.449219 C -133.234375 23.308594 -133.070312 23.09375 -132.808594 22.953125 C -91.386719 -5.515625 -37.398438 -8.472656 1.0625 20.175781 L 130.71875 119.636719 L -22.007812 318.726562 L -151.566406 219.339844 C -189.492188 189.394531 -200.949219 136.910156 -183.566406 89.320312 Z M -183.566406 89.320312 " clip-rule="nonzero"/></clipPath><clipPath id="c500c2e943"><rect x="0" width="131" y="0" height="319"/></clipPath><clipPath id="f156295652"><path d="M 204 1069 L 539 1069 L 539 1397 L 204 1397 Z M 204 1069 " clip-rule="nonzero"/></clipPath><clipPath id="eb3ea51165"><path d="M 586.171875 1243.261719 L 435.242188 1443.484375 L 204.519531 1269.558594 L 355.453125 1069.339844 Z M 586.171875 1243.261719 " clip-rule="nonzero"/></clipPath><clipPath id="25de4643a5"><path d="M 530.707031 1306.171875 C 526.089844 1318.738281 519.300781 1331.972656 510.667969 1343.425781 C 502.035156 1354.878906 491.984375 1364.589844 481.230469 1372.410156 C 480.96875 1372.550781 480.804688 1372.769531 480.546875 1372.910156 C 439.402344 1401.714844 385.503906 1405.140625 346.597656 1376.660156 L 204.890625 1269.839844 L 355.824219 1069.617188 L 497.421875 1176.359375 C 535.8125 1206.148438 547.683594 1258.472656 530.707031 1306.171875 Z M 530.707031 1306.171875 " clip-rule="nonzero"/></clipPath><clipPath id="b5043987f4"><path d="M 0.71875 0.441406 L 335 0.441406 L 335 328 L 0.71875 328 Z M 0.71875 0.441406 " clip-rule="nonzero"/></clipPath><clipPath id="0a78d262d0"><path d="M 382.171875 174.261719 L 231.242188 374.484375 L 0.519531 200.558594 L 151.453125 0.339844 Z M 382.171875 174.261719 " clip-rule="nonzero"/></clipPath><clipPath id="928eed1c11"><path d="M 326.707031 237.171875 C 322.089844 249.738281 315.300781 262.972656 306.667969 274.425781 C 298.035156 285.878906 287.984375 295.589844 277.230469 303.410156 C 276.96875 303.550781 276.804688 303.769531 276.546875 303.910156 C 235.402344 332.714844 181.503906 336.140625 142.597656 307.660156 L 0.890625 200.839844 L 151.824219 0.617188 L 293.421875 107.359375 C 331.8125 137.148438 343.683594 189.472656 326.707031 237.171875 Z M 326.707031 237.171875 " clip-rule="nonzero"/></clipPath><clipPath id="1af29b0e90"><rect x="0" width="335" y="0" height="328"/></clipPath><clipPath id="9c5090f98f"><rect x="0" width="1375" y="0" height="1500"/></clipPath><clipPath id="758b55248b"><rect x="0" width="1375" y="0" height="1500"/></clipPath><mask id="c1e95c427e"><g filter="url(#32a110d6fa)"><rect x="-150" width="1800" fill="#000000" y="-149.999993" height="1799.99992" fill-opacity="0.73"/></g></mask><clipPath id="ce72b8ca83"><path d="M 1 0.523438 L 568.988281 0.523438 L 568.988281 134.175781 L 1 134.175781 Z M 1 0.523438 " clip-rule="nonzero"/></clipPath><clipPath id="1b935f19ec"><path d="M 533.738281 134.175781 L 36.269531 134.175781 C 16.800781 134.175781 1.019531 118.390625 1.019531 98.925781 L 1.019531 35.773438 C 1.019531 16.304688 16.800781 0.523438 36.269531 0.523438 L 533.738281 0.523438 C 553.207031 0.523438 568.988281 16.304688 568.988281 35.773438 L 568.988281 98.925781 C 568.988281 118.390625 553.207031 134.175781 533.738281 134.175781 Z M 533.738281 134.175781 " clip-rule="nonzero"/></clipPath><clipPath id="7c841b5734"><path d="M 0 0.523438 L 567.988281 0.523438 L 567.988281 134.175781 L 0 134.175781 Z M 0 0.523438 " clip-rule="nonzero"/></clipPath><clipPath id="6ce08fe439"><path d="M 532.738281 134.175781 L 35.269531 134.175781 C 15.800781 134.175781 0.0195312 118.390625 0.0195312 98.925781 L 0.0195312 35.773438 C 0.0195312 16.304688 15.800781 0.523438 35.269531 0.523438 L 532.738281 0.523438 C 552.207031 0.523438 567.988281 16.304688 567.988281 35.773438 L 567.988281 98.925781 C 567.988281 118.390625 552.207031 134.175781 532.738281 134.175781 Z M 532.738281 134.175781 " clip-rule="nonzero"/></clipPath><clipPath id="bd7e88a11d"><rect x="0" width="568" y="0" height="135"/></clipPath><clipPath id="0a55b7af7e"><rect x="0" width="570" y="0" height="135"/></clipPath><mask id="e8cfa9e255"><g filter="url(#32a110d6fa)"><rect x="-150" width="1800" fill="#000000" y="-149.999993" height="1799.99992" fill-opacity="0.73"/></g></mask><clipPath id="189a1bee8b"><path d="M 0.746094 0.804688 L 568.765625 0.804688 L 568.765625 134.457031 L 0.746094 134.457031 Z M 0.746094 0.804688 " clip-rule="nonzero"/></clipPath><clipPath id="750f25ba27"><path d="M 533.515625 134.457031 L 36.046875 134.457031 C 16.578125 134.457031 0.796875 118.675781 0.796875 99.207031 L 0.796875 36.054688 C 0.796875 16.589844 16.578125 0.804688 36.046875 0.804688 L 533.515625 0.804688 C 552.984375 0.804688 568.765625 16.589844 568.765625 36.054688 L 568.765625 99.207031 C 568.765625 118.675781 552.984375 134.457031 533.515625 134.457031 Z M 533.515625 134.457031 " clip-rule="nonzero"/></clipPath><clipPath id="499610e6b5"><path d="M 0.746094 0.804688 L 568.765625 0.804688 L 568.765625 134.457031 L 0.746094 134.457031 Z M 0.746094 0.804688 " clip-rule="nonzero"/></clipPath><clipPath id="d3331db896"><path d="M 533.515625 134.457031 L 36.046875 134.457031 C 16.578125 134.457031 0.796875 118.675781 0.796875 99.207031 L 0.796875 36.054688 C 0.796875 16.589844 16.578125 0.804688 36.046875 0.804688 L 533.515625 0.804688 C 552.984375 0.804688 568.765625 16.589844 568.765625 36.054688 L 568.765625 99.207031 C 568.765625 118.675781 552.984375 134.457031 533.515625 134.457031 Z M 533.515625 134.457031 " clip-rule="nonzero"/></clipPath><clipPath id="fdfca1bd32"><rect x="0" width="569" y="0" height="135"/></clipPath><clipPath id="82a35292b4"><rect x="0" width="569" y="0" height="135"/></clipPath><mask id="8b194e4937"><g filter="url(#32a110d6fa)"><rect x="-150" width="1800" fill="#000000" y="-149.999993" height="1799.99992" fill-opacity="0.73"/></g></mask><clipPath id="284a889a78"><path d="M 1 0.183594 L 345.3125 0.183594 L 345.3125 133.835938 L 1 133.835938 Z M 1 0.183594 " clip-rule="nonzero"/></clipPath><clipPath id="18ef666a48"><path d="M 310.0625 133.835938 L 36.277344 133.835938 C 16.808594 133.835938 1.027344 118.050781 1.027344 98.585938 L 1.027344 35.433594 C 1.027344 15.964844 16.808594 0.183594 36.277344 0.183594 L 310.0625 0.183594 C 329.53125 0.183594 345.3125 15.964844 345.3125 35.433594 L 345.3125 98.585938 C 345.3125 118.050781 329.53125 133.835938 310.0625 133.835938 Z M 310.0625 133.835938 " clip-rule="nonzero"/></clipPath><clipPath id="c59d7523d1"><path d="M 0 0.183594 L 344.3125 0.183594 L 344.3125 133.835938 L 0 133.835938 Z M 0 0.183594 " clip-rule="nonzero"/></clipPath><clipPath id="39f9015126"><path d="M 309.0625 133.835938 L 35.277344 133.835938 C 15.808594 133.835938 0.0273438 118.050781 0.0273438 98.585938 L 0.0273438 35.433594 C 0.0273438 15.964844 15.808594 0.183594 35.277344 0.183594 L 309.0625 0.183594 C 328.53125 0.183594 344.3125 15.964844 344.3125 35.433594 L 344.3125 98.585938 C 344.3125 118.050781 328.53125 133.835938 309.0625 133.835938 Z M 309.0625 133.835938 " clip-rule="nonzero"/></clipPath><clipPath id="20263ce1f1"><rect x="0" width="345" y="0" height="134"/></clipPath><clipPath id="49d94060f3"><rect x="0" width="346" y="0" height="135"/></clipPath></defs><rect x="-150" width="1800" fill="#ffffff" y="-149.999993" height="1799.99992" fill-opacity="1"/><rect x="-150" width="1800" fill="#0065fc" y="-149.999993" height="1799.99992" fill-opacity="1"/><g mask="url(#4f73bcb4a9)"><g transform="matrix(1, 0, 0, 1, 52, 212)"><g clip-path="url(#586c0a5d20)"><g clip-path="url(#3e818f94f6)"><path fill="#ffffff" d="M 1722.171875 429.109375 C 1722.171875 192.238281 1530.164062 0.21875 1293.292969 0.21875 C 1041.679688 0.21875 693.65625 0.21875 442.046875 0.21875 C 205.175781 0.21875 13.152344 192.238281 13.152344 429.109375 C 13.152344 680.722656 13.152344 1028.746094 13.152344 1280.355469 C 13.152344 1517.226562 205.175781 1709.234375 442.046875 1709.234375 C 693.65625 1709.234375 1041.679688 1709.234375 1293.292969 1709.234375 C 1530.164062 1709.234375 1722.171875 1517.226562 1722.171875 1280.355469 Z M 1508.550781 429.097656 L 1508.550781 1280.355469 C 1508.550781 1399.242188 1412.175781 1495.617188 1293.292969 1495.617188 C 1293.292969 1495.617188 442.046875 1495.617188 442.046875 1495.617188 C 323.160156 1495.617188 226.785156 1399.242188 226.785156 1280.355469 C 226.785156 1280.355469 226.785156 429.109375 226.785156 429.109375 C 226.785156 310.226562 323.160156 213.851562 442.03125 213.851562 C 442.046875 213.851562 1293.292969 213.851562 1293.292969 213.851562 C 1412.175781 213.851562 1508.550781 310.226562 1508.550781 429.097656 Z M 867.667969 1277.871094 L 1231.265625 1277.871094 C 1290.226562 1277.871094 1338.089844 1230.007812 1338.089844 1171.058594 C 1338.089844 1112.113281 1290.226562 1064.25 1231.265625 1064.25 L 867.667969 1064.25 C 808.707031 1064.25 760.847656 1112.113281 760.847656 1171.058594 C 760.847656 1230.007812 808.707031 1277.871094 867.667969 1277.871094 Z M 504.542969 1277.871094 L 547.226562 1277.871094 C 606.175781 1277.871094 654.035156 1230.007812 654.035156 1171.058594 C 654.035156 1112.113281 606.175781 1064.25 547.226562 1064.25 L 504.542969 1064.25 C 445.582031 1064.25 397.722656 1112.113281 397.722656 1171.058594 C 397.722656 1230.007812 445.582031 1277.871094 504.542969 1277.871094 Z M 867.667969 960.773438 L 1231.265625 960.773438 C 1290.226562 960.773438 1338.089844 912.914062 1338.089844 853.953125 C 1338.089844 795.003906 1290.226562 747.140625 1231.265625 747.140625 L 867.667969 747.140625 C 808.707031 747.140625 760.847656 795.003906 760.847656 853.953125 C 760.847656 912.914062 808.707031 960.773438 867.667969 960.773438 Z M 504.542969 960.773438 L 547.226562 960.773438 C 606.175781 960.773438 654.035156 912.914062 654.035156 853.953125 C 654.035156 795.003906 606.175781 747.140625 547.226562 747.140625 L 504.542969 747.140625 C 445.582031 747.140625 397.722656 795.003906 397.722656 853.953125 C 397.722656 912.914062 445.582031 960.773438 504.542969 960.773438 Z M 867.667969 643.664062 L 1231.265625 643.664062 C 1290.226562 643.664062 1338.089844 595.804688 1338.089844 536.84375 C 1338.089844 477.894531 1290.226562 430.035156 1231.265625 430.035156 L 867.667969 430.035156 C 808.707031 430.035156 760.847656 477.894531 760.847656 536.84375 C 760.847656 595.804688 808.707031 643.664062 867.667969 643.664062 Z M 504.542969 643.664062 L 547.226562 643.664062 C 606.175781 643.664062 654.035156 595.804688 654.035156 536.84375 C 654.035156 477.894531 606.175781 430.035156 547.226562 430.035156 L 504.542969 430.035156 C 445.582031 430.035156 397.722656 477.894531 397.722656 536.84375 C 397.722656 595.804688 445.582031 643.664062 504.542969 643.664062 Z M 504.542969 643.664062 " fill-opacity="1" fill-rule="evenodd"/></g></g></g></g><g mask="url(#4b25603a5f)"><g transform="matrix(1, 0, 0, 1, 0, 0.000000000000112861)"><g clip-path="url(#758b55248b)"><g clip-path="url(#8fe01c8a2c)"><g transform="matrix(1, 0, 0, 1, 0, 0.000000000000112861)"><g clip-path="url(#9c5090f98f)"><g clip-path="url(#7b2ff17c73)"><g clip-path="url(#a2fe51442b)"><g clip-path="url(#ad9f015b58)"><g transform="matrix(1, 0, 0, 1, 319, 139)"><g clip-path="url(#e1f0d084f9)"><g clip-path="url(#32e93a59d3)"><g clip-path="url(#224c343b8a)"><g clip-path="url(#0f452af257)"><path fill="#ffffff" d="M -13.980469 1078.773438 L 847.449219 -49.160156 L 1038.046875 96.398438 L 176.613281 1224.335938 Z M -13.980469 1078.773438 " fill-opacity="1" fill-rule="nonzero"/></g></g></g></g></g></g></g></g><g clip-path="url(#9ebe64a53c)"><g clip-path="url(#bab4bb884d)"><g clip-path="url(#2021a6794b)"><g transform="matrix(1, 0, 0, 1, 0, 783)"><g clip-path="url(#14b320bb3c)"><g clip-path="url(#089c3975f9)"><g clip-path="url(#522260d83a)"><g clip-path="url(#b8320cc6d6)"><path fill="#ffffff" d="M -214.300781 173.726562 L -63.660156 -27.757812 L 554.96875 434.761719 L 404.324219 636.246094 Z M -214.300781 173.726562 " fill-opacity="1" fill-rule="nonzero"/></g></g></g></g></g></g></g></g><g clip-path="url(#0072d31980)"><g clip-path="url(#e3d607fee6)"><g clip-path="url(#a6c1e6d4c5)"><g transform="matrix(1, 0, 0, 1, 0, 783)"><g clip-path="url(#c500c2e943)"><g clip-path="url(#2ae8867531)"><g clip-path="url(#056cf97a68)"><g clip-path="url(#e8c9e31e24)"><path fill="#ffffff" d="M -239.609375 151.800781 L -86.882812 -47.289062 L 130.871094 119.753906 L -21.855469 318.84375 Z M -239.609375 151.800781 " fill-opacity="1" fill-rule="nonzero"/></g></g></g></g></g></g></g></g><g clip-path="url(#f156295652)"><g clip-path="url(#eb3ea51165)"><g clip-path="url(#25de4643a5)"><g transform="matrix(1, 0, 0, 1, 204, 1069)"><g clip-path="url(#1af29b0e90)"><g clip-path="url(#b5043987f4)"><g clip-path="url(#0a78d262d0)"><g clip-path="url(#928eed1c11)"><path fill="#ffffff" d="M 382.171875 174.261719 L 231.242188 374.484375 L 0.519531 200.558594 L 151.453125 0.339844 Z M 382.171875 174.261719 " fill-opacity="1" fill-rule="nonzero"/></g></g></g></g></g></g></g></g></g></g></g></g></g></g><g mask="url(#c1e95c427e)"><g transform="matrix(1, 0, 0, 1, 306, 117)"><g clip-path="url(#0a55b7af7e)"><g clip-path="url(#ce72b8ca83)"><g clip-path="url(#1b935f19ec)"><g transform="matrix(1, 0, 0, 1, 1, 0.000000000000099476)"><g clip-path="url(#bd7e88a11d)"><g clip-path="url(#7c841b5734)"><g clip-path="url(#6ce08fe439)"><path fill="#5ce1e6" d="M 567.988281 134.175781 L -0.03125 134.175781 L -0.03125 0.523438 L 567.988281 0.523438 Z M 567.988281 134.175781 " fill-opacity="1" fill-rule="nonzero"/></g></g></g></g></g></g></g></g></g><g mask="url(#e8cfa9e255)"><g transform="matrix(1, 0, 0, 1, 80, 488)"><g clip-path="url(#82a35292b4)"><g clip-path="url(#189a1bee8b)"><g clip-path="url(#750f25ba27)"><g transform="matrix(1, 0, 0, 1, 0, 0.000000000000113687)"><g clip-path="url(#fdfca1bd32)"><g clip-path="url(#499610e6b5)"><g clip-path="url(#d3331db896)"><path fill="#5ce1e6" d="M 568.765625 134.457031 L 0.746094 134.457031 L 0.746094 0.804688 L 568.765625 0.804688 Z M 568.765625 134.457031 " fill-opacity="1" fill-rule="nonzero"/></g></g></g></g></g></g></g></g></g><g mask="url(#8b194e4937)"><g transform="matrix(1, 0, 0, 1, 306, 303)"><g clip-path="url(#49d94060f3)"><g clip-path="url(#284a889a78)"><g clip-path="url(#18ef666a48)"><g transform="matrix(1, 0, 0, 1, 1, 0.000000000000113687)"><g clip-path="url(#20263ce1f1)"><g clip-path="url(#c59d7523d1)"><g clip-path="url(#39f9015126)"><path fill="#5ce1e6" d="M 344.3125 133.835938 L 0.261719 133.835938 L 0.261719 0.183594 L 344.3125 0.183594 Z M 344.3125 133.835938 " fill-opacity="1" fill-rule="nonzero"/></g></g></g></g></g></g></g></g></g></svg>